<?xml version="1.0" standalone="no"?>
<!DOCTYPE svg PUBLIC "-//W3C//DTD SVG 20010904//EN"
 "http://www.w3.org/TR/2001/REC-SVG-20010904/DTD/svg10.dtd">
<svg version="1.0" xmlns="http://www.w3.org/2000/svg"
 width="475.000000pt" height="475.000000pt" viewBox="0 0 475.000000 475.000000"
 preserveAspectRatio="xMidYMid meet">

<g transform="translate(0.000000,475.000000) scale(0.100000,-0.100000)"
fill="#000000" stroke="none">
<path d="M2200 3924 c-79 -10 -241 -48 -340 -80 -446 -147 -835 -548 -969
-1002 -55 -185 -66 -267 -65 -489 l0 -203 -94 -31 c-51 -17 -92 -33 -90 -34 2
-2 55 12 118 31 125 37 385 99 464 110 l48 7 -7 81 c-4 51 -12 86 -22 96 -13
13 -14 6 -11 -68 l3 -82 -35 -6 c-19 -3 -60 -13 -90 -21 -30 -8 -68 -17 -85
-20 -16 -2 -58 -14 -93 -25 -35 -11 -66 -17 -70 -13 -4 4 -7 95 -6 203 0 164
4 214 22 299 132 611 580 1058 1199 1195 83 19 130 22 298 22 172 0 215 -3
305 -23 476 -105 859 -405 1066 -835 113 -235 148 -395 149 -673 0 -105 -3
-195 -8 -199 -4 -4 -38 2 -75 15 -37 12 -79 23 -92 25 -14 1 -32 5 -40 8 -28
11 -109 28 -133 28 l-24 0 -6 153 c-7 170 -28 279 -78 406 -24 61 -36 81 -50
81 -25 0 -24 -1 11 -64 47 -83 82 -274 84 -453 l1 -142 90 -16 c113 -20 383
-89 477 -121 39 -13 73 -22 75 -20 2 2 -25 13 -59 25 -35 12 -83 30 -108 39
l-45 17 5 45 c11 104 3 376 -14 465 -94 495 -397 893 -854 1124 -80 40 -217
86 -351 118 -87 20 -138 25 -286 28 -99 2 -196 1 -215 -1z"/>
<path d="M2150 3509 c0 -5 5 -7 10 -4 17 11 116 -41 138 -72 34 -48 43 -80 27
-93 -11 -9 -17 -6 -31 15 -9 14 -26 31 -37 36 -15 9 -12 0 13 -36 41 -59 29
-82 -24 -44 -49 35 -76 73 -91 127 -7 26 -14 40 -14 31 -2 -32 30 -119 55
-148 14 -17 54 -45 90 -62 66 -33 79 -50 23 -30 -18 6 -58 11 -91 11 -110 0
-196 -64 -233 -175 l-19 -55 -24 51 c-16 33 -37 58 -58 71 -19 11 -34 26 -34
33 0 7 -9 15 -20 18 -23 6 -60 -2 -60 -13 0 -4 -11 -11 -24 -14 -48 -12 -122
-93 -169 -184 -25 -48 -51 -106 -58 -129 -7 -24 -15 -43 -19 -43 -4 0 -49 9
-101 20 -52 11 -110 20 -130 20 -87 0 -121 -100 -80 -240 27 -92 60 -149 122
-216 72 -75 126 -99 224 -99 68 0 88 4 130 27 28 14 74 29 104 33 29 3 74 13
99 21 41 14 50 14 100 -1 69 -22 183 -16 263 14 58 22 92 48 120 91 16 24 16
24 75 10 37 -8 70 -23 89 -41 70 -65 183 -87 275 -54 42 15 45 14 79 -9 67
-46 129 -68 200 -69 139 -2 245 63 306 186 32 64 36 83 36 144 0 85 -25 156
-75 217 l-35 43 52 6 c96 12 167 86 167 176 0 40 -2 43 -22 36 -13 -3 -57 -10
-99 -14 -84 -9 -115 -25 -149 -81 l-21 -35 7 47 c5 40 4 47 -14 52 -11 4 -32
4 -47 0 -25 -6 -26 -10 -23 -57 l3 -51 -75 -2 c-107 -2 -177 -31 -246 -101
-30 -31 -56 -54 -58 -52 -2 2 0 29 5 59 10 61 3 135 -18 194 -43 126 -178 192
-308 152 -27 -8 -50 -14 -51 -13 -2 1 8 22 20 47 28 55 77 91 114 84 29 -6 59
12 62 36 8 58 -18 76 -85 59 -59 -15 -108 -69 -132 -146 l-17 -58 -6 73 c-5
58 -12 80 -36 114 -40 57 -174 124 -174 87z m427 -90 c17 -17 4 -39 -22 -39
-30 0 -41 16 -25 35 15 18 32 19 47 4z m-67 -8 c0 -5 -16 -24 -36 -43 -19 -18
-42 -46 -51 -61 -17 -35 -27 -30 -17 8 11 44 104 130 104 96z m-205 -149 c-3
-3 -11 0 -18 7 -9 10 -8 11 6 5 10 -3 15 -9 12 -12z m-477 -104 c-3 -7 -11
-13 -18 -13 -7 0 -15 6 -17 13 -3 7 4 12 17 12 13 0 20 -5 18 -12z m-40 -40
c10 -10 17 -10 31 -1 15 9 24 7 50 -10 19 -14 29 -28 25 -37 -3 -8 -2 -11 2
-7 10 10 31 -53 45 -133 6 -36 20 -87 31 -114 l19 -49 -29 -31 c-57 -60 -77
-88 -109 -149 -27 -50 -33 -57 -33 -36 0 44 -28 110 -64 149 -19 21 -37 36
-40 32 -3 -3 -6 0 -6 6 0 7 -3 11 -7 10 -20 -5 -53 15 -54 33 -1 10 -2 25 -3
32 -7 65 35 252 62 275 9 6 12 12 6 12 -12 1 38 29 52 30 5 0 16 -6 22 -12z
m1712 -33 c0 -13 -84 -85 -101 -85 -4 0 -10 6 -12 13 -3 7 -6 5 -6 -6 -1 -17
-44 -41 -62 -35 -5 2 -2 16 7 32 15 30 15 30 -5 12 -11 -10 -23 -27 -27 -38
-5 -17 -51 -44 -60 -35 -2 2 9 28 26 59 35 64 59 78 150 88 36 4 71 8 78 9 6
0 12 -6 12 -14z m-284 -72 c-6 -58 -26 -126 -40 -140 -4 -5 -5 24 -1 62 4 41
3 81 -3 96 -13 32 -7 39 26 39 24 0 25 -1 18 -57z m-122 -80 c-3 -10 -13 -32
-22 -50 -13 -26 -13 -34 -3 -47 8 -9 22 -16 33 -16 10 0 21 -7 24 -15 5 -11
20 -14 63 -12 74 4 81 10 74 52 -7 46 8 45 45 -2 105 -134 101 -288 -9 -408
-90 -97 -240 -127 -353 -70 -32 16 -61 35 -63 42 -3 7 9 28 27 46 63 63 92
167 71 254 -16 62 -42 89 -102 104 -27 7 -49 16 -49 19 0 13 67 69 105 88 57
28 64 30 117 31 41 1 47 -1 42 -16z m-786 -73 c35 -25 42 -36 42 -63 0 -22 -7
-36 -21 -45 -20 -13 -21 -12 -17 21 2 20 0 33 -5 30 -5 -3 -12 -1 -16 6 -4 6
-6 -18 -4 -54 4 -73 -10 -85 -33 -30 -20 48 -16 165 6 165 4 0 26 -14 48 -30z
m822 15 c0 -8 -7 -15 -15 -15 -26 0 -18 20 13 29 1 1 2 -6 2 -14z m96 -17 c2
-20 -3 -23 -34 -24 -21 -1 -29 1 -19 3 10 3 23 16 28 30 11 29 21 25 25 -9z
m-773 -25 c-10 -67 -12 -71 -33 -66 -15 4 -19 11 -15 27 2 11 2 15 -1 8 -8
-17 -24 -5 -24 19 0 19 28 37 61 38 12 1 15 -6 12 -26z m-1045 -38 c283 -56
365 -106 365 -220 0 -141 -167 -245 -338 -210 -103 22 -148 59 -195 160 -30
65 -55 168 -46 191 3 8 17 19 32 24 22 9 25 15 20 36 -8 29 -1 44 20 44 8 0
72 -11 142 -25z m-185 -9 c6 -15 -1 -26 -15 -26 -4 0 -8 9 -8 20 0 23 15 27
23 6z m1685 -16 c80 -49 6 -163 -145 -223 -70 -27 -168 -39 -213 -26 -22 7
-40 15 -41 18 0 3 -2 16 -5 29 -2 13 0 21 4 18 11 -7 64 29 55 37 -12 13 -44
7 -49 -8 -4 -8 -12 -15 -20 -15 -28 0 -13 34 39 84 71 69 161 105 267 105 58
1 82 -4 108 -19z m-718 -20 c0 -5 -7 -10 -15 -10 -8 0 -15 5 -15 10 0 6 7 10
15 10 8 0 15 -4 15 -10z m308 -16 c17 -3 32 -10 32 -14 0 -10 -40 -61 -60 -77
-23 -19 -75 -16 -94 6 -16 18 -16 19 9 25 15 4 36 4 47 0 13 -4 18 -2 14 4 -3
6 0 13 6 16 7 3 -4 4 -24 1 -26 -4 -38 -2 -38 6 0 7 -8 5 -20 -6 -15 -13 -24
-15 -31 -8 -15 15 -3 32 35 49 30 13 51 13 124 -2z m-418 -24 c0 -5 -7 -10
-16 -10 -8 0 -12 5 -9 10 3 6 10 10 16 10 5 0 9 -4 9 -10z m80 -40 c0 -5 -7
-10 -16 -10 -8 0 -12 5 -9 10 3 6 10 10 16 10 5 0 9 -4 9 -10z m-155 -30 c-3
-5 -10 -10 -16 -10 -5 0 -9 5 -9 10 0 6 7 10 16 10 8 0 12 -4 9 -10z m940 -37
c-21 -116 -108 -190 -233 -200 -60 -4 -73 -2 -122 24 -68 36 -81 67 -23 57 92
-14 271 48 343 120 19 19 37 35 39 35 2 1 0 -16 -4 -36z m-550 -21 c17 -7 42
-10 57 -7 29 6 48 -15 48 -53 0 -19 -3 -20 -48 -8 -26 7 -58 18 -69 25 -26 13
-53 49 -53 70 0 12 3 12 18 -1 9 -8 31 -20 47 -26z m-435 -36 c0 -3 -4 -8 -10
-11 -5 -3 -10 -1 -10 4 0 6 5 11 10 11 6 0 10 -2 10 -4z m170 -26 c0 -5 -5
-10 -11 -10 -5 0 -7 5 -4 10 3 6 8 10 11 10 2 0 4 -4 4 -10z m120 -4 c0 -3 -4
-8 -10 -11 -5 -3 -10 -1 -10 4 0 6 5 11 10 11 6 0 10 -2 10 -4z m32 -68 c-7
-7 -12 -8 -12 -2 0 6 3 14 7 17 3 4 9 5 12 2 2 -3 -1 -11 -7 -17z m-102 8 c0
-3 -4 -8 -10 -11 -5 -3 -10 -1 -10 4 0 6 5 11 10 11 6 0 10 -2 10 -4z m-105
-16 c-3 -5 -10 -10 -16 -10 -5 0 -9 5 -9 10 0 6 7 10 16 10 8 0 12 -4 9 -10z"/>
<path d="M1384 2734 c-43 -23 -56 -48 -55 -115 0 -160 146 -239 261 -143 88
74 78 188 -20 243 -53 30 -143 37 -186 15z"/>
<path d="M2280 3510 c0 -14 28 -18 160 -25 250 -13 478 -111 688 -293 42 -37
90 -73 106 -80 29 -13 29 -12 -10 30 -182 200 -427 330 -689 368 -91 13 -255
13 -255 0z"/>
<path d="M2005 3461 c-198 -69 -388 -200 -514 -356 -46 -57 -151 -222 -151
-237 0 -5 8 -8 18 -8 11 0 30 25 54 69 123 227 380 433 635 508 46 13 63 23
63 36 0 22 -9 21 -105 -12z"/>
<path d="M2445 2248 c-57 -13 -87 -44 -83 -87 3 -36 29 -61 120 -116 18 -11
34 -28 36 -36 4 -21 -32 -31 -64 -19 -19 8 -24 17 -24 44 0 38 -21 52 -56 39
-42 -15 -46 -59 -9 -93 21 -20 39 -25 93 -28 117 -7 182 40 148 106 -13 25
-33 40 -123 93 -38 22 -44 54 -11 62 35 9 58 -9 58 -47 0 -24 5 -35 18 -38 27
-7 59 8 67 31 19 60 -77 110 -170 89z m-15 -84 c0 -8 6 -14 14 -14 8 0 16 -6
19 -14 3 -7 25 -23 49 -35 56 -30 78 -50 78 -73 0 -36 -28 -30 -74 16 -25 25
-52 46 -59 46 -20 0 -67 49 -67 71 0 17 18 30 33 22 4 -2 7 -11 7 -19z"/>
<path d="M2078 2229 c-88 -46 -101 -180 -23 -248 113 -99 289 3 256 149 -23
101 -138 150 -233 99z m110 -41 c33 -36 48 -108 34 -157 -32 -106 -141 -21
-130 101 3 26 11 54 18 63 18 22 53 19 78 -7z m91 -72 c0 -23 -4 -50 -8 -61
-7 -16 -10 -11 -16 25 -4 25 -12 53 -17 63 -5 10 -7 26 -4 34 6 14 9 14 26 -2
14 -13 20 -30 19 -59z m-213 -22 c1 -56 -8 -68 -26 -34 -6 11 -7 20 -3 20 4 0
2 5 -4 11 -12 12 -7 35 11 55 17 18 21 7 22 -52z"/>
<path d="M2670 2231 c0 -6 5 -11 11 -11 8 0 10 -34 7 -116 -4 -105 -7 -119
-26 -135 -22 -17 -21 -17 40 -24 35 -3 90 -7 122 -8 58 -2 59 -1 67 27 11 39
6 43 -25 19 -14 -12 -37 -19 -53 -17 -15 1 -34 2 -40 3 -14 1 -18 57 -7 85 8
20 28 21 44 1 20 -24 27 -18 33 27 7 50 4 56 -18 34 -9 -9 -25 -16 -36 -16
-18 0 -20 6 -17 48 3 47 3 47 40 50 29 3 43 -2 63 -22 l25 -25 0 34 c0 39 -3
40 -142 50 -61 5 -88 3 -88 -4z m74 -110 c3 -5 -1 -11 -9 -15 -9 -3 -15 0 -15
9 0 16 16 20 24 6z"/>
<path d="M1770 2214 c-8 -1 -37 -6 -63 -9 -47 -6 -48 -7 -32 -25 11 -13 20
-52 28 -124 10 -98 9 -107 -9 -127 l-19 -21 75 7 c41 4 77 9 78 10 2 2 -6 13
-17 24 -20 20 -30 81 -13 81 5 0 15 -12 23 -26 22 -42 67 -74 103 -74 39 0 69
29 64 62 -2 19 -10 24 -43 26 -62 5 -70 18 -35 59 40 46 37 95 -9 130 -14 11
-93 16 -131 7z m64 -46 c9 -12 16 -37 16 -55 0 -26 -5 -34 -24 -39 -38 -9 -46
2 -46 62 0 47 3 54 19 54 11 0 27 -10 35 -22z m-84 -19 c15 -27 18 -171 4
-176 -11 -4 -29 63 -39 150 -5 38 -3 47 9 47 8 0 20 -9 26 -21z m150 -11 c0
-16 -3 -19 -11 -11 -6 6 -8 16 -5 22 11 17 16 13 16 -11z"/>
<path d="M2977 2183 c8 -51 -24 -226 -42 -240 -18 -13 -18 -13 58 -28 19 -3
23 10 6 21 -11 7 -3 137 10 162 4 8 25 -28 52 -89 33 -76 50 -104 68 -111 49
-18 53 -11 73 122 13 91 22 128 35 137 21 16 17 19 -34 28 -43 7 -53 -1 -32
-22 13 -13 2 -153 -12 -153 -5 0 -14 10 -19 23 -70 169 -74 175 -136 176 -28
1 -30 -1 -27 -26z m89 -35 c9 -16 13 -36 10 -44 -7 -19 -36 -18 -36 1 0 8 -6
15 -14 15 -22 0 -27 15 -16 44 12 32 35 25 56 -16z m64 -122 c13 -25 28 -46
32 -46 12 0 10 -24 -3 -37 -13 -13 -39 -6 -39 11 0 6 -9 22 -20 36 -11 14 -20
35 -20 47 0 12 -5 25 -10 28 -6 4 -8 11 -5 16 11 16 39 -8 65 -55z"/>
<path d="M1429 2171 c-77 -25 -115 -84 -106 -163 14 -112 116 -168 224 -123
19 8 45 15 58 15 20 0 21 4 17 55 -3 35 0 60 8 70 15 18 14 18 -67 4 l-63 -11
20 -25 c38 -49 18 -93 -33 -74 -79 30 -114 173 -53 213 32 22 76 -6 76 -47 0
-31 33 -42 65 -21 56 37 13 103 -71 111 -27 2 -61 1 -75 -4z m-49 -125 c0 -24
-16 -43 -27 -32 -8 8 6 56 17 56 6 0 10 -11 10 -24z m14 -77 c-10 -16 -24 -9
-24 12 0 18 2 19 15 9 8 -7 12 -16 9 -21z"/>
<path d="M3410 2138 c0 -6 -28 -58 -62 -116 -45 -75 -71 -108 -92 -117 -34
-15 -24 -23 41 -32 42 -6 47 -5 35 9 -7 9 -10 23 -6 32 7 17 24 20 73 10 24
-5 31 -12 31 -30 0 -13 -8 -27 -17 -32 -13 -8 -3 -13 43 -22 32 -6 67 -14 77
-16 21 -6 22 4 2 26 -14 15 -45 180 -45 240 0 14 -4 30 -8 36 -10 16 -72 26
-72 12z m60 -50 c6 -18 14 -70 17 -115 4 -69 3 -83 -10 -83 -20 0 -28 23 -32
95 -2 33 -8 71 -13 85 -5 14 -7 31 -5 38 8 23 31 12 43 -20z m-47 -75 c3 -27
2 -52 -2 -56 -9 -9 -61 1 -61 12 0 11 45 91 51 91 4 0 9 -21 12 -47z"/>
<path d="M1105 2099 l-31 -8 -11 -131 c-8 -87 -17 -139 -27 -155 -19 -29 -12
-31 47 -14 34 9 37 12 22 23 -28 20 -14 49 28 59 51 12 71 3 63 -28 -7 -29 -4
-29 62 -14 78 18 80 19 50 35 -15 8 -55 59 -94 121 -37 60 -70 111 -73 114 -3
3 -20 2 -36 -2z m42 -41 c13 -12 23 -27 23 -35 0 -7 4 -13 9 -13 9 0 61 -100
61 -118 0 -34 -39 1 -78 68 -17 31 -40 67 -52 80 -16 18 -17 25 -8 32 18 11
19 11 45 -14z m5 -116 c14 -27 0 -42 -39 -42 -25 0 -27 9 -16 74 l6 39 18 -24
c10 -13 24 -34 31 -47z"/>
<path d="M2200 1833 c-322 -10 -669 -57 -950 -130 -174 -45 -526 -160 -517
-169 1 -2 57 14 122 36 66 22 130 40 142 40 16 0 31 -13 50 -42 81 -129 109
-164 228 -284 307 -310 661 -457 1100 -457 173 0 267 12 417 54 366 100 717
359 900 664 18 30 38 55 44 55 6 0 67 -18 135 -40 68 -21 125 -38 127 -36 11
12 -453 156 -613 191 -230 51 -317 67 -465 85 -161 20 -500 42 -590 38 -25 -1
-83 -3 -130 -5z m629 -67 c140 -15 367 -52 404 -65 14 -6 10 -14 -30 -53 l-48
-47 -40 15 c-22 7 -47 14 -57 14 -9 0 -18 4 -20 10 -4 13 -172 50 -232 50
l-48 0 51 -48 c28 -26 51 -53 51 -60 0 -7 4 -12 9 -12 10 0 51 -66 51 -82 0
-6 7 -19 15 -28 14 -15 14 -19 1 -30 -13 -10 -21 -7 -46 18 -16 17 -30 34 -30
39 -1 14 -73 89 -130 135 -117 93 -150 109 -124 61 7 -16 14 -36 14 -45 0 -9
5 -20 11 -23 6 -4 8 -13 5 -21 -3 -7 -1 -16 5 -20 5 -3 7 -14 4 -24 -3 -11 1
-30 10 -43 10 -15 18 -58 22 -109 l6 -85 -58 -11 c-65 -13 -72 -11 -91 32 -8
17 -28 49 -44 71 -16 22 -29 50 -30 61 0 12 -7 27 -15 34 -8 7 -15 20 -15 29
0 9 -5 22 -10 27 -6 6 -19 40 -29 75 -18 62 -19 63 -30 36 -24 -62 -69 -255
-76 -331 -4 -54 -15 -61 -77 -50 l-53 9 -7 70 c-14 135 -5 233 30 323 5 15 3
15 -23 -2 -44 -29 -175 -147 -175 -158 0 -6 -11 -19 -25 -30 -14 -11 -25 -25
-25 -31 -1 -7 -13 -26 -28 -44 l-28 -32 -41 25 -42 25 32 62 c36 71 42 78 115
153 48 49 50 54 28 54 -47 0 -181 -22 -191 -31 -5 -5 -19 -9 -31 -9 -13 0 -26
-4 -29 -10 -3 -5 -16 -10 -29 -10 -12 0 -26 -3 -30 -7 -3 -4 -22 -12 -42 -19
-34 -12 -36 -11 -79 35 -24 25 -41 49 -37 53 9 9 368 56 517 67 165 13 639 5
814 -13z m-1361 -88 c236 -287 547 -439 902 -440 199 0 346 35 525 124 124 63
204 123 315 238 l95 98 150 -35 c83 -19 167 -37 188 -40 21 -3 40 -9 42 -14
14 -21 -173 -259 -279 -355 -410 -371 -978 -496 -1496 -328 -334 108 -609 317
-810 615 -44 67 -48 75 -33 87 9 6 26 12 38 12 23 0 287 59 294 66 13 13 46 0
69 -28z"/>
</g>
</svg>
